<svg xmlns="http://www.w3.org/2000/svg" fill="#040c27" height="40" viewBox="0 -960 960 960" width="40"><path d="m312.812-435.927 198.391 198.391q13.203 13.237 13.319 31.264.116 18.026-13.087 31.393-13.203 13.083-31.366 12.967-18.164-.116-31.504-13.319L175.231-448.565q-6.618-6.715-10.026-14.841-3.409-8.127-3.409-16.636 0-8.509 3.409-16.606 3.408-8.097 10.026-14.787L449.13-785.334q13.624-13.058 31.363-13.058 17.739 0 30.942 13.058 13.203 13.58 13.203 31.482 0 17.903-13.203 31.156L312.812-524.073h458.942q18.62 0 31.535 12.703T816.204-480q0 18.667-12.915 31.37t-31.535 12.703H312.812Z"/></svg>