<?xml version="1.0" encoding="UTF-8"?>
<!DOCTYPE svg PUBLIC "-//W3C//DTD SVG 1.1//EN" "http://www.w3.org/Graphics/SVG/1.1/DTD/svg11.dtd">
<!-- Creator: CorelDRAW 2018 (64-Bit) -->
<svg xmlns="http://www.w3.org/2000/svg" xml:space="preserve" width="0.333331in" height="0.333331in" version="1.1" style="shape-rendering:geometricPrecision; text-rendering:geometricPrecision; image-rendering:optimizeQuality; fill-rule:evenodd; clip-rule:evenodd"
viewBox="0 0 333.33 333.33"
 xmlns:xlink="http://www.w3.org/1999/xlink">
 <defs>
  <style type="text/css">
   <![CDATA[
    .fil0 {fill:none}
    .fil1 {fill:#fff}
   ]]>
  </style>
 </defs>
 <g id="Layer_x0020_1">
  <metadata id="CorelCorpID_0Corel-Layer"/>
  <g id="_2817032899328">
   <rect class="fil0" width="333.33" height="333.33"/>
   <path class="fil1" d="M253.9 79.43l0 0c10.46,10.46 10.46,27.57 0,38.03l-49.2 49.2 49.2 49.2c10.46,10.46 10.46,27.57 0,38.03l-0 0c-10.46,10.46 -27.57,10.46 -38.03,0l-49.2 -49.2 -49.2 49.2c-10.46,10.46 -27.57,10.46 -38.03,0l0 -0c-10.46,-10.46 -10.46,-27.57 0,-38.03l49.2 -49.2 -49.2 -49.2c-10.46,-10.46 -10.46,-27.57 0,-38.03l0 0c10.46,-10.46 27.57,-10.46 38.03,0l49.2 49.2 49.2 -49.2c10.46,-10.46 27.57,-10.46 38.03,0z"/>
  </g>
 </g>
</svg>
