<?xml version="1.0" encoding="UTF-8"?>
<!DOCTYPE svg PUBLIC "-//W3C//DTD SVG 1.1//EN" "http://www.w3.org/Graphics/SVG/1.1/DTD/svg11.dtd">
<!-- Creator: CorelDRAW 2021 (64-Bit) -->
<svg xmlns="http://www.w3.org/2000/svg" xml:space="preserve" width="10in" height="5.20833in" version="1.1" style="shape-rendering:geometricPrecision; text-rendering:geometricPrecision; image-rendering:optimizeQuality; fill-rule:evenodd; clip-rule:evenodd"
viewBox="0 0 10 5.20833"
 xmlns:xlink="http://www.w3.org/1999/xlink"
 xmlns:xodm="http://www.corel.com/coreldraw/odm/2003">
 <defs>
  <style type="text/css">
   <![CDATA[
    .str0 {stroke:#FFFFFF70;stroke-width:0.13889;stroke-linecap:round;stroke-linejoin:round;stroke-miterlimit:2.61313}
    .fil0 {fill:none}
    .fil1 {fill:#FFFFFF70}
   ]]>
  </style>
 </defs>
 <g id="Layer_x0020_1">
  <metadata id="CorelCorpID_0Corel-Layer"/>
  <g id="_2940990225440">
   <path class="fil0 str0" d="M2.52836 3.61551c-0.5823,0.34316 -0.96743,1.27867 0.18113,-0.05216 0,0 1.61103,-1.67494 1.68321,-1.58023 0.43605,0.57205 -2.05058,0.41212 -2.60946,0.60056 -0.34421,0.11606 1.12937,0.14694 0.78159,0.08549"/>
   <path class="fil0 str0" d="M2.45706 3.66104c0.85395,-0.63641 1.17046,-0.64554 1.96067,-1.03985 0.30088,-0.15014 0.65818,-0.38097 1.11828,-0.76725 0.29802,-0.2502 0.4205,-0.65917 -0.03765,-0.41712 -0.72013,0.38047 -1.9866,2.50024 -2.53385,2.54288 -0.38776,0.03021 1.06465,-1.18691 1.553,-0.9244 0.27505,0.14785 -0.80496,0.71845 -0.48044,0.89332 0.34096,0.18372 1.30159,-0.33877 1.30924,-0.68788 0.00756,-0.3452 -0.55354,-0.00328 -0.73281,0.32084 -0.08735,0.15793 -0.14327,0.39144 0.09953,0.40246 0.29048,0.01319 0.57215,-0.21042 0.72346,-0.38719 0.12352,-0.1443 0.19702,-0.2255 0.22657,-0.30341 0.17515,-0.462 -0.6756,0.15468 -0.30699,0.17313 0.85439,0.04279 1.17453,-0.18047 0.93082,-0.43672 -0.01737,-0.01826 -0.0949,0.08249 -0.19503,0.23089 -0.07642,0.11327 -0.44667,0.59183 -0.57513,0.72241 -0.02038,0.02071 -0.05346,0.00894 -0.04091,-0.03335 0.00454,-0.0153 0.05363,-0.08875 0.13726,-0.1709 0.07547,-0.07412 0.51796,-0.52736 0.83971,-0.71213 0.41679,-0.23935 0.08987,0.57506 -0.1998,0.76817 -0.23793,0.15862 0.45565,-0.80423 0.86289,-0.83215 0.30965,-0.02123 -0.43262,0.58071 -0.30567,0.95213 0.03054,0.08937 0.39907,-0.33165 1.12326,-0.62406 0.23356,-0.0943 0.49581,-0.31254 0.23846,-0.30559 -0.38996,0.01055 -0.97565,0.39757 -1.10389,0.66865 -0.05727,0.12107 0.01161,0.19947 0.10546,0.23274 0.9308,0.33003 0.90206,-1.66417 0.79685,0.00271 -0.00912,0.14451 1.01856,-0.54656 1.29311,-0.90202 0.13968,-0.18085 -0.57136,0.21548 -0.29389,0.23799 0.82827,0.06715 0.498,0.71877 -0.54737,0.66835 -1.373,-0.06623 -4.38181,-0.279 -6.18721,-0.21698 -1.19594,0.04108 -1.68202,0.33307 -1.09528,0.40913 1.625,0.21063 7.3052,-0.38447 7.92257,-0.43727"/>
   <path class="fil0 str0" d="M0.61979 2.79766c1.00035,-0.37682 2.40184,-0.80563 3.61819,-1.18549 1.18668,-0.37059 2.19717,-0.69458 2.48707,-0.87824"/>
   <circle class="fil1 str0" transform="matrix(1.42825 -0.0145799 -0.465255 1.06627 7.8103 2.56085)" r="0.11198"/>
   <circle class="fil1 str0" transform="matrix(1.42825 -0.0145799 -0.465255 1.06627 8.36198 2.55246)" r="0.11198"/>
  </g>
 </g>
</svg>
