<?xml version="1.0" encoding="UTF-8"?>
<!DOCTYPE svg PUBLIC "-//W3C//DTD SVG 1.1//EN" "http://www.w3.org/Graphics/SVG/1.1/DTD/svg11.dtd">
<!-- Creator: CorelDRAW 2021 (64-Bit) -->
<svg xmlns="http://www.w3.org/2000/svg" xml:space="preserve" width="6.66666in" height="6.66666in" version="1.1" style="shape-rendering:geometricPrecision; text-rendering:geometricPrecision; image-rendering:optimizeQuality; fill-rule:evenodd; clip-rule:evenodd"
viewBox="0 0 666666 666666"
 xmlns:xlink="http://www.w3.org/1999/xlink"
 xmlns:xodm="http://www.corel.com/coreldraw/odm/2003">
 <defs>
  <style type="text/css">
   <![CDATA[
    .str0 {stroke:#05FCD3;stroke-width:694;stroke-linecap:round;stroke-linejoin:round;stroke-miterlimit:2.61313}
    .fil0 {fill:#05FCD3}
    .fil1 {fill:white;fill-rule:nonzero}
   ]]>
  </style>
 </defs>
 <g id="Layer_x0020_1">
  <metadata id="CorelCorpID_0Corel-Layer"/>
  <g id="_2014566623776">
   <path class="fil0 str0" d="M339558 241498c11029,-107099 149426,-46836 64941,103226 -179087,17264 -166194,-142995 -64941,-103226z"/>
   <path class="fil1" d="M239911 324133l-324 4545c-5654,-541 -11659,-812 -17989,-812 -2759,0 -8170,541 -16258,1623l0 -4707 14121 -487c-3787,-27106 -5789,-59703 -6006,-97845l-11686 297 162 -3570c9711,108 16420,-108 20045,-595 3652,-514 8169,-1515 13580,-2976l784 4057 -10550 1948c-1948,24725 -2922,46258 -2922,64572 0,11200 270,22561 812,34112 4517,0 9928,-54 16231,-163z"/>
   <path class="fil1" d="M129647 457628c-7673,2073 -14000,3091 -18982,3091 -11855,0 -21892,-5200 -30074,-15637 -8182,-10437 -12255,-22619 -12255,-36546 0,-12764 4982,-24219 14909,-34329 9928,-10109 21274,-15164 33965,-15164 5819,0 11746,1819 17782,5491 6037,3636 9055,8000 9055,13055 0,4255 -2000,8328 -6000,12255 -4037,3891 -8291,5855 -12837,5855 -4037,0 -7673,-1091 -10837,-3237 -3200,-2182 -4800,-4982 -4800,-8473 0,-3273 1018,-5819 3091,-7600 2073,-1818 4873,-2727 8437,-2727 2073,0 3928,509 5600,1564 1672,1054 2509,2400 2509,4036 0,1019 -655,2037 -2000,3091 -1309,1055 -2546,1564 -3709,1564l-1273 0c728,-2327 1091,-3855 1091,-4546 0,-1782 -1091,-2654 -3309,-2654 -1273,0 -2364,727 -3346,2218 -945,1455 -1418,2946 -1418,4400 0,5637 2618,8437 7855,8437 3528,0 6437,-1309 8655,-3891 2218,-2618 3345,-5746 3345,-9455 0,-4400 -1854,-8146 -5600,-11237 -3709,-3091 -7891,-4654 -12473,-4654 -9673,0 -17710,5018 -24183,15055 -6437,10037 -9673,20692 -9673,31928 0,12364 2509,23492 7564,33347 5055,9855 11709,14800 19928,14800 6473,0 11273,-2764 14400,-8291l4582 8255z"/>
   <path id="_1" class="fil1" d="M203650 391517c-982,1636 -2219,2436 -3709,2436 -909,0 -1782,-436 -2545,-1309 -764,-909 -1164,-2036 -1164,-3455 0,-1709 764,-3091 2327,-4218 1564,-1127 3273,-1709 5091,-1709 2073,0 4000,872 5818,2618 1782,1746 2691,3564 2691,5491 0,4546 -1272,8146 -3854,10800 -2546,2655 -5855,4000 -9928,4000 -2909,0 -5418,-1528 -7491,-4546 -2109,-3019 -3164,-6728 -3164,-11164 0,-5127 2255,-9819 6728,-14109 4509,-4255 9091,-6400 13782,-6400 9637,0 18437,4255 26437,12764 7964,8509 11964,18110 11964,28837 0,13237 -4582,25201 -13709,35819 -9164,10655 -18946,15964 -29419,15964 -11891,0 -22583,-4800 -32074,-14400 -9491,-9600 -14255,-20910 -14255,-33965 0,-10982 4364,-21419 13055,-31347 8691,-9928 18982,-16219 30837,-18909l1272 2618c-9019,1636 -16473,6909 -22364,15782 -5891,8873 -8837,18546 -8837,28983 0,14291 2945,25892 8873,34801 5928,8909 13746,13382 23383,13382 7382,0 14182,-4509 20401,-13528 6219,-9019 9309,-19564 9309,-31637 0,-11491 -2691,-21201 -8073,-29019 -5382,-7855 -11964,-11782 -19673,-11782 -4182,0 -7673,1637 -10437,4946 -2764,3309 -4146,6873 -4146,10800 0,2473 945,4619 2836,6400 1891,1818 3709,2727 5382,2727 2254,0 4509,-872 6728,-2618 2254,-1709 3382,-3419 3382,-5055 0,-3455 -1964,-5200 -5855,-5200 -1637,0 -2437,873 -2437,2655 0,764 946,1637 2837,2546z"/>
   <path id="_2" class="fil1" d="M351364 305150l-7200 1673c-2582,8618 -5782,28510 -9600,59711 -3782,31165 -5673,55784 -5673,73857 0,11346 3055,18437 9164,21201l-3091 4364c-4437,-1346 -7673,-5564 -9637,-12691 -2000,-7091 -2982,-26183 -2982,-57202 -6437,-11309 -13491,-16946 -21201,-16946 -6837,0 -12619,3782 -17346,11346 -4691,7564 -7055,15746 -7055,24546 0,12437 2146,22510 6473,30219 4328,7709 10437,11564 18364,11564 3491,0 6764,-1491 9819,-4509 3091,-3019 4618,-6364 4618,-10109 0,-3273 -1491,-6182 -4509,-8691 -3019,-2509 -6255,-3746 -9782,-3746 -1091,0 -2546,691 -4473,2073 -1891,1382 -2837,2909 -2837,4582 0,3127 1819,4691 5419,4691 1091,0 1927,-691 2582,-2037 618,-1382 945,-2800 945,-4291 3346,0 5019,1637 5019,4873 0,2073 -909,3855 -2727,5346 -1782,1491 -3491,2219 -5055,2219 -2109,0 -4255,-982 -6437,-2982 -2146,-1963 -3237,-4436 -3237,-7346 0,-4218 1382,-7709 4182,-10437 2764,-2727 6000,-4109 9637,-4109 4473,0 8109,1854 10873,5527 2728,3709 4109,8546 4109,14510 0,4436 -1928,8509 -5819,12291 -3891,3746 -8000,5637 -12364,5637 -11746,0 -21383,-4182 -28837,-12546 -7491,-8328 -11237,-18364 -11237,-30001 0,-11237 4364,-21237 13055,-30037 8691,-8764 17600,-13164 26655,-13164 3419,0 7091,1309 11055,3927 3964,2655 7491,6328 10546,11091l4146 -80912 -10909 0 0 -3928c9709,0 21419,-1091 35128,-3273l219 3709z"/>
   <path id="_3" class="fil1" d="M389983 337006l-1309 218c-2691,-4364 -6728,-6546 -12037,-6546 -4073,0 -7746,1200 -11091,3637 -3345,2400 -5018,5237 -5018,8437 0,3818 1418,6873 4291,9164 2837,2291 5600,3419 8328,3419 5419,0 8109,-2400 8109,-7164 0,-5419 -2073,-8109 -6182,-8109 -763,0 -1600,291 -2509,873 -909,582 -1345,1272 -1345,2109 0,1636 1018,2473 3018,2473 873,0 2000,-437 3309,-1273 -763,3746 -2436,5637 -5018,5637 -1128,0 -2146,-691 -3019,-2037 -909,-1345 -1345,-2473 -1345,-3382 0,-1782 763,-3309 2254,-4618 1491,-1309 3309,-1964 5419,-1964 2837,0 5491,764 7891,2327 2436,1564 3636,3746 3636,6582 0,2982 -1527,5491 -4545,7600 -3019,2073 -6291,3128 -9855,3128 -4218,0 -7891,-1455 -11019,-4364 -3128,-2909 -4691,-6582 -4691,-10982 0,-4618 1636,-8728 4909,-12255 3273,-3563 6800,-5345 10546,-5345 9455,0 15200,4145 17273,12437zm7637 128513c-16401,0 -26656,255 -30692,800 -4037,546 -7564,1164 -10546,1819l0 -5891 13746 -436c0,-30874 -1527,-60402 -4582,-88585l-11782 -436 0 -3928c7273,146 12328,219 15128,219 5019,0 11746,-1309 20219,-3928l0 4800 -9600 2400 -2255 34401 -2545 54220c8109,0 15746,-437 22910,-1346l0 5891z"/>
   <path id="_4" class="fil1" d="M424348 396572c7528,-21237 18764,-31856 33674,-31856 10582,0 20110,4436 28546,13346 8473,8909 12691,19383 12691,31346 0,13128 -3891,25783 -11709,37893 -7819,12146 -16037,18219 -24692,18219 -3782,0 -7455,-1672 -11019,-5018 -3600,-3309 -5382,-6837 -5382,-10546 0,-2982 1527,-5636 4582,-7964 3055,-2364 6146,-3528 9346,-3528 7455,0 11164,2291 11164,6909 0,4400 -2691,6619 -8073,6619 -2473,0 -3928,-509 -4364,-1564l872 -1054c909,291 1746,436 2437,436 1418,0 2146,-1309 2146,-3928 0,-2909 -1382,-4364 -4146,-4364 -1528,0 -2873,1128 -4073,3346 -1200,2218 -1819,4473 -1819,6728 0,6800 3055,10219 9164,10219 13819,0 20728,-18437 20728,-55347 0,-8946 -2691,-17346 -8109,-25201 -5382,-7818 -11637,-11746 -18728,-11746 -5964,0 -11419,2364 -16364,7091 -4909,4727 -8800,10255 -11637,16619 -2837,6364 -4255,9964 -4255,10800l-4182 56038 11600 -2836 1273 4800c-7564,1891 -13128,2837 -16765,2837 -3563,0 -8691,-218 -15382,-655l946 -4800 14182 1091c145,-2764 218,-6073 218,-9928 0,-28983 -2691,-56548 -8073,-82657l-12037 2036 -1273 -3927c9855,-1200 20037,-4328 30547,-9382l-2037 39929z"/>
   <path id="_5" class="fil1" d="M544061 458537c7309,-3673 12400,-6328 15237,-8037 2837,-1673 7382,-3746 13673,-6182 6291,-2437 12219,-3673 17746,-3673 5237,0 9491,2109 12764,6328 3273,4255 4909,9564 4909,15928 0,10655 -5164,20292 -15491,28837 -10364,8546 -23565,12837 -39711,12837 -9855,0 -18400,-2545 -25637,-7673 -7200,-5091 -10800,-11200 -10800,-18292 0,-8837 6182,-16437 18582,-22910l1273 2219c-5528,4073 -8291,9964 -8291,17709 0,6946 2291,13019 6873,18183 4582,5128 10728,7709 18473,7709 14000,0 25346,-3928 34038,-11746 8691,-7819 13055,-15673 13055,-23565 0,-3564 -1200,-6473 -3564,-8800 -2400,-2291 -5455,-3455 -9237,-3455 -5528,0 -10837,727 -15928,2145 -5055,1419 -10691,3673 -16873,6764 -6182,3054 -11419,6073 -15673,8982l-2873 -1709c1928,-3528 3309,-9528 4219,-17964 872,-8437 1600,-14837 2182,-19165 -8182,-2000 -14764,-5927 -19710,-11782 -4946,-5855 -7419,-12546 -7419,-20074 0,-11382 3964,-21237 11855,-29601 7891,-8328 16509,-12510 25892,-12510 6000,0 10909,1455 14837,4364 -3345,-4909 -5018,-9891 -5018,-15019 0,-4255 1600,-7819 4837,-10728 3236,-2909 7309,-4364 12182,-4364 3709,0 6800,1054 9309,3200 2509,2109 3782,4473 3782,7091 0,2255 -946,4328 -2873,6146 -1928,1855 -4255,2764 -6982,2764 -1600,0 -2836,-1236 -3673,-3709 1746,436 2873,654 3419,654 2073,0 3127,-1781 3127,-5345 0,-2182 -545,-4000 -1600,-5491 -1055,-1491 -2437,-2255 -4219,-2255 -3273,0 -5855,1309 -7637,3928 -1782,2582 -2691,6037 -2691,10364 0,7164 728,12182 2182,15019l-3091 1891c-3637,-3346 -8691,-5018 -15237,-5018 -7964,0 -14437,3454 -19491,10400 -5055,6946 -7564,15164 -7564,24656 0,10255 1964,18292 5855,24110 3927,5782 8728,8691 14509,8691 6946,0 12946,-3491 17928,-10509 5018,-7019 7528,-14909 7528,-23674 0,-5855 -1819,-11164 -5491,-16000 -3636,-4800 -7928,-7200 -12837,-7200 -2037,0 -3928,946 -5673,2873 -1746,1891 -2619,4073 -2619,6473 0,2982 546,5491 1600,7600 1055,2073 2509,3128 4328,3128 764,0 1709,-509 2837,-1528 1127,-1054 1709,-2364 1709,-4000 0,-1709 -546,-2546 -1600,-2546 -1346,0 -2582,582 -3637,1746 0,-1782 436,-3237 1273,-4400 873,-1127 1782,-1709 2800,-1709 4255,0 6400,1964 6400,5855 0,2219 -1128,4255 -3419,6146 -2255,1891 -4618,2837 -7019,2837 -3564,0 -6473,-1164 -8800,-3528 -2291,-2327 -3455,-5346 -3455,-8946 0,-2364 1636,-4982 4873,-7855 3237,-2873 6619,-4328 10182,-4328 7528,0 14146,2619 19819,7819 5709,5237 8546,11564 8546,19019 0,9528 -3891,17855 -11709,25019 -7819,7164 -15928,10764 -24328,10764 -982,12073 -1927,20437 -2764,25092z"/>
  </g>
 </g>
</svg>
