<?xml version="1.0" encoding="UTF-8"?>
<!DOCTYPE svg PUBLIC "-//W3C//DTD SVG 1.1//EN" "http://www.w3.org/Graphics/SVG/1.1/DTD/svg11.dtd">
<!-- Creator: CorelDRAW 2021 (64-Bit) -->
<svg xmlns="http://www.w3.org/2000/svg" xml:space="preserve" width="8.5in" height="11in" version="1.1" style="shape-rendering:geometricPrecision; text-rendering:geometricPrecision; image-rendering:optimizeQuality; fill-rule:evenodd; clip-rule:evenodd"
viewBox="0 0 850000 1100000"
 xmlns:xlink="http://www.w3.org/1999/xlink"
 xmlns:xodm="http://www.corel.com/coreldraw/odm/2003">
 <defs>
  <style type="text/css">
   <![CDATA[
    .str0 {stroke:#05FCD3;stroke-width:694;stroke-linecap:round;stroke-linejoin:round;stroke-miterlimit:2.61313}
    .fil0 {fill:#05FCD3}
    .fil1 {fill:white;fill-rule:nonzero}
   ]]>
  </style>
 </defs>
 <g id="Layer_x0020_1">
  <metadata id="CorelCorpID_0Corel-Layer"/>
  <g id="_2014470455072">
   <g>
    <path class="fil0 str0" d="M431825 460602c14988,-145544 203065,-63649 88253,140282 -243373,23461 -225853,-194327 -88253,-140282z"/>
    <path class="fil1" d="M296407 572900l-441 6176c-7683,-735 -15844,-1103 -24447,-1103 -3750,0 -11102,735 -22094,2206l0 -6396 19190 -662c-5146,-36835 -7867,-81134 -8161,-132968l-15881 404 220 -4853c13198,147 22315,-147 27241,-809 4963,-698 11102,-2059 18455,-4044l1066 5514 -14337 2647c-2647,33600 -3970,62863 -3970,87751 0,15220 368,30660 1103,46357 6139,0 13492,-74 22057,-220z"/>
    <path class="fil1" d="M146562 754316c-10427,2817 -19026,4201 -25796,4201 -16110,0 -29750,-7067 -40869,-21250 -11119,-14183 -16654,-30739 -16654,-49666 0,-17346 6770,-32913 20262,-46651 13491,-13738 28910,-20607 46157,-20607 7907,0 15962,2471 24165,7462 8204,4942 12306,10872 12306,17741 0,5782 -2718,11317 -8154,16654 -5485,5288 -11267,7956 -17444,7956 -5485,0 -10428,-1482 -14727,-4398 -4349,-2965 -6523,-6770 -6523,-11515 0,-4448 1383,-7907 4200,-10329 2817,-2471 6622,-3706 11465,-3706 2817,0 5337,692 7610,2125 2273,1433 3410,3261 3410,5485 0,1383 -889,2767 -2718,4200 -1779,1433 -3459,2125 -5041,2125l-1730 0c988,-3163 1482,-5239 1482,-6178 0,-2421 -1482,-3607 -4497,-3607 -1730,0 -3212,989 -4546,3015 -1285,1977 -1928,4003 -1928,5980 0,7660 3558,11465 10674,11465 4794,0 8747,-1779 11762,-5288 3015,-3558 4546,-7808 4546,-12849 0,-5980 -2520,-11070 -7611,-15270 -5041,-4200 -10724,-6326 -16950,-6326 -13145,0 -24067,6820 -32863,20459 -8747,13639 -13145,28119 -13145,43389 0,16802 3410,31924 10279,45317 6869,13393 15913,20113 27081,20113 8797,0 15320,-3756 19570,-11268l6226 11218z"/>
    <path id="_1" class="fil1" d="M247129 664473c-1334,2224 -3015,3311 -5041,3311 -1235,0 -2422,-593 -3459,-1779 -1038,-1235 -1581,-2767 -1581,-4694 0,-2323 1038,-4201 3163,-5733 2125,-1532 4448,-2323 6919,-2323 2817,0 5436,1186 7907,3558 2421,2372 3657,4843 3657,7462 0,6177 -1730,11070 -5238,14677 -3459,3608 -7956,5436 -13491,5436 -3954,0 -7363,-2076 -10180,-6178 -2866,-4102 -4299,-9142 -4299,-15171 0,-6968 3064,-13343 9143,-19174 6128,-5782 12354,-8698 18730,-8698 13096,0 25055,5782 35927,17346 10823,11564 16259,24611 16259,39189 0,17989 -6227,34247 -18631,48678 -12454,14480 -25747,21694 -39980,21694 -16160,0 -30689,-6523 -43587,-19570 -12898,-13046 -19372,-28416 -19372,-46157 0,-14924 5930,-29107 17741,-42598 11811,-13491 25796,-22041 41907,-25698l1730 3558c-12256,2224 -22387,9390 -30393,21448 -8006,12058 -12009,25204 -12009,39387 0,19422 4003,35186 12058,47294 8055,12107 18680,18186 31776,18186 10032,0 19273,-6128 27724,-18383 8450,-12256 12651,-26587 12651,-42994 0,-15617 -3657,-28811 -10971,-39436 -7314,-10674 -16259,-16011 -26735,-16011 -5683,0 -10428,2224 -14183,6721 -3756,4497 -5633,9340 -5633,14677 0,3361 1285,6276 3855,8698 2570,2471 5041,3706 7314,3706 3064,0 6128,-1186 9143,-3558 3064,-2323 4596,-4645 4596,-6869 0,-4695 -2669,-7067 -7956,-7067 -2224,0 -3311,1186 -3311,3607 0,1038 1285,2224 3855,3459z"/>
    <path id="_2" class="fil1" d="M447867 547104l-9785 2273c-3509,11712 -7857,38744 -13046,81145 -5139,42352 -7709,75808 -7709,100369 0,15419 4151,25055 12454,28811l-4200 5930c-6029,-1828 -10428,-7561 -13096,-17247 -2718,-9637 -4052,-35581 -4052,-77735 -8747,-15369 -18334,-23029 -28811,-23029 -9291,0 -17148,5139 -23572,15419 -6375,10279 -9587,21398 -9587,33357 0,16901 2916,30590 8796,41067 5881,10477 14183,15715 24956,15715 4744,0 9192,-2026 13343,-6128 4200,-4102 6276,-8648 6276,-13738 0,-4448 -2026,-8401 -6128,-11811 -4102,-3410 -8500,-5090 -13293,-5090 -1483,0 -3459,939 -6079,2817 -2570,1878 -3855,3954 -3855,6227 0,4250 2471,6375 7363,6375 1483,0 2619,-939 3509,-2767 840,-1878 1285,-3805 1285,-5831 4546,0 6820,2224 6820,6622 0,2817 -1235,5239 -3706,7265 -2422,2026 -4744,3015 -6869,3015 -2866,0 -5782,-1334 -8747,-4052 -2916,-2669 -4398,-6029 -4398,-9983 0,-5732 1878,-10476 5683,-14183 3756,-3706 8154,-5584 13096,-5584 6078,0 11020,2520 14776,7512 3707,5041 5585,11613 5585,19718 0,6029 -2619,11564 -7907,16704 -5288,5090 -10872,7660 -16802,7660 -15962,0 -29058,-5683 -39189,-17049 -10180,-11317 -15270,-24956 -15270,-40770 0,-15270 5930,-28860 17741,-40820 11811,-11910 23919,-17889 36224,-17889 4645,0 9637,1779 15023,5337 5387,3607 10180,8599 14331,15073l5634 -109956 -14826 0 0 -5337c13195,0 29107,-1482 47739,-4448l296 5041z"/>
    <path id="_3" class="fil1" d="M500350 590394l-1779 296c-3657,-5930 -9142,-8895 -16357,-8895 -5535,0 -10526,1631 -15072,4942 -4547,3262 -6820,7116 -6820,11465 0,5189 1928,9340 5831,12454 3855,3113 7611,4645 11317,4645 7363,0 11020,-3261 11020,-9735 0,-7363 -2817,-11020 -8401,-11020 -1038,0 -2174,395 -3410,1186 -1236,791 -1829,1730 -1829,2867 0,2224 1384,3360 4102,3360 1186,0 2718,-593 4497,-1730 -1038,5090 -3311,7660 -6820,7660 -1532,0 -2916,-939 -4102,-2767 -1235,-1829 -1829,-3361 -1829,-4596 0,-2422 1038,-4497 3064,-6276 2026,-1779 4497,-2669 7363,-2669 3854,0 7462,1038 10724,3163 3311,2125 4942,5090 4942,8945 0,4052 -2076,7462 -6177,10328 -4102,2817 -8549,4250 -13393,4250 -5732,0 -10724,-1977 -14974,-5930 -4250,-3954 -6375,-8945 -6375,-14924 0,-6276 2224,-11860 6672,-16654 4448,-4843 9241,-7265 14331,-7265 12849,0 20657,5634 23474,16901zm10378 174645c-22288,0 -36224,346 -41709,1087 -5485,741 -10279,1581 -14331,2471l0 -8006 18680 -593c0,-41956 -2075,-82084 -6226,-120383l-16012 -593 0 -5337c9884,198 16753,296 20558,296 6820,0 15962,-1779 27477,-5337l0 6523 -13047 3261 -3064 46750 -3459 73683c11020,0 21398,-593 31134,-1828l0 8006z"/>
    <path id="_4" class="fil1" d="M547050 671342c10230,-28861 25500,-43291 45762,-43291 14381,0 27328,6029 38794,18137 11514,12108 17247,26340 17247,42599 0,17840 -5288,35038 -15913,51494 -10625,16506 -21794,24759 -33556,24759 -5139,0 -10131,-2273 -14974,-6820 -4893,-4497 -7314,-9291 -7314,-14331 0,-4052 2075,-7660 6226,-10823 4151,-3212 8352,-4794 12701,-4794 10131,0 15172,3113 15172,9390 0,5980 -3657,8994 -10971,8994 -3360,0 -5337,-692 -5930,-2125l1186 -1433c1235,396 2372,593 3311,593 1928,0 2916,-1779 2916,-5337 0,-3954 -1878,-5930 -5634,-5930 -2076,0 -3904,1532 -5535,4547 -1631,3014 -2471,6078 -2471,9142 0,9241 4151,13887 12453,13887 18779,0 28169,-25055 28169,-75215 0,-12157 -3657,-23572 -11020,-34247 -7314,-10625 -15814,-15962 -25450,-15962 -8105,0 -15518,3212 -22239,9637 -6671,6424 -11959,13936 -15814,22584 -3855,8648 -5782,13541 -5782,14677l-5683 76154 15765 -3855 1730 6523c-10279,2570 -17840,3855 -22782,3855 -4843,0 -11811,-296 -20904,-889l1285 -6523 19273 1482c198,-3756 296,-8253 296,-13491 0,-39387 -3657,-76846 -10971,-112328l-16357 2767 -1730 -5337c13393,-1631 27230,-5881 41512,-12750l-2768 54262z"/>
    <path id="_5" class="fil1" d="M709736 755551c9933,-4991 16852,-8599 20707,-10921 3854,-2273 10032,-5090 18581,-8401 8550,-3311 16605,-4991 24117,-4991 7116,0 12898,2866 17346,8599 4448,5782 6672,12997 6672,21645 0,14480 -7018,27576 -21052,39189 -14084,11613 -32023,17445 -53965,17445 -13393,0 -25006,-3459 -34840,-10428 -9785,-6919 -14678,-15221 -14678,-24857 0,-12009 8401,-22337 25253,-31134l1730 3015c-7511,5535 -11267,13541 -11267,24067 0,9439 3113,17692 9340,24709 6227,6968 14578,10477 25104,10477 19026,0 34445,-5337 46256,-15962 11811,-10625 17741,-21300 17741,-32023 0,-4843 -1631,-8797 -4843,-11959 -3262,-3113 -7413,-4695 -12552,-4695 -7512,0 -14727,989 -21645,2916 -6869,1928 -14529,4991 -22930,9192 -8401,4151 -15517,8253 -21300,12207l-3904 -2323c2619,-4794 4497,-12948 5733,-24413 1186,-11465 2174,-20163 2965,-26044 -11119,-2718 -20064,-8055 -26785,-16012 -6721,-7956 -10081,-17049 -10081,-27279 0,-15468 5387,-28861 16110,-40227 10724,-11317 22436,-17000 35186,-17000 8154,0 14826,1977 20163,5930 -4546,-6672 -6820,-13442 -6820,-20410 0,-5782 2174,-10625 6573,-14579 4398,-3954 9933,-5930 16555,-5930 5041,0 9241,1433 12651,4349 3410,2867 5139,6079 5139,9637 0,3064 -1285,5881 -3904,8352 -2619,2520 -5782,3756 -9488,3756 -2174,0 -3855,-1680 -4991,-5041 2372,593 3904,890 4645,890 2817,0 4250,-2422 4250,-7265 0,-2965 -741,-5436 -2174,-7462 -1433,-2026 -3311,-3064 -5733,-3064 -4448,0 -7956,1779 -10378,5337 -2421,3509 -3657,8204 -3657,14084 0,9735 988,16555 2965,20410l-4200 2570c-4942,-4546 -11811,-6820 -20707,-6820 -10822,0 -19619,4695 -26488,14134 -6869,9439 -10279,20607 -10279,33506 0,13936 2669,24858 7956,32765 5337,7857 11861,11811 19718,11811 9439,0 17593,-4744 24363,-14282 6820,-9538 10230,-20261 10230,-32171 0,-7957 -2471,-15172 -7462,-21744 -4942,-6523 -10773,-9785 -17444,-9785 -2768,0 -5337,1285 -7709,3904 -2372,2570 -3558,5535 -3558,8796 0,4052 741,7462 2174,10329 1433,2817 3410,4250 5881,4250 1038,0 2322,-692 3854,-2076 1532,-1433 2323,-3212 2323,-5436 0,-2323 -741,-3459 -2174,-3459 -1828,0 -3509,791 -4942,2372 0,-2421 593,-4398 1730,-5980 1186,-1532 2422,-2322 3805,-2322 5782,0 8698,2669 8698,7956 0,3015 -1532,5782 -4645,8352 -3064,2570 -6276,3855 -9538,3855 -4843,0 -8796,-1581 -11959,-4794 -3113,-3163 -4695,-7265 -4695,-12157 0,-3212 2224,-6770 6622,-10674 4398,-3904 8994,-5881 13837,-5881 10230,0 19224,3558 26933,10625 7759,7116 11613,15715 11613,25846 0,12948 -5288,24265 -15913,34000 -10625,9735 -21645,14628 -33061,14628 -1334,16407 -2619,27773 -3756,34099z"/>
   </g>
   <path class="fil1" d="M408780 299413l-6700 1116c-13774,-22335 -34433,-33502 -61607,-33502 -20845,0 -39643,6142 -56767,18612 -17123,12284 -25684,26802 -25684,43180 0,19543 7259,35178 21962,46902 14518,11726 28663,17496 42622,17496 27731,0 41504,-12284 41504,-36666 0,-27733 -10609,-41505 -31641,-41505 -3908,0 -8189,1489 -12842,4467 -4653,2978 -6886,6514 -6886,10795 0,8375 5211,12656 15448,12656 4467,0 10237,-2233 16937,-6514 -3908,19170 -12470,28849 -25685,28849 -5769,0 -10981,-3537 -15447,-10423 -4653,-6886 -6886,-12656 -6886,-17309 0,-9120 3908,-16937 11539,-23637 7630,-6700 16936,-10050 27731,-10050 14518,0 28105,3909 40388,11911 12470,8003 18612,19170 18612,33688 0,15262 -7817,28104 -23265,38899 -15448,10609 -32199,16007 -50439,16007 -21591,0 -40388,-7445 -56395,-22335 -16007,-14890 -24009,-33688 -24009,-56208 0,-23637 8376,-44669 25126,-62723 16751,-18240 34805,-27360 53974,-27360 48392,0 77799,21218 88408,63654z"/>
  </g>
 </g>
</svg>
